<svg width="41" height="41" viewBox="0 0 41 41" fill="none" xmlns="http://www.w3.org/2000/svg">
<circle cx="20.5" cy="20.5" r="20.5" fill="#EBEBEB"/>
<mask id="mask0_80_259" style="mask-type:alpha" maskUnits="userSpaceOnUse" x="0" y="0" width="41" height="41">
<circle cx="20.5" cy="20.5" r="20.5" fill="#BBBBBB"/>
</mask>
<g mask="url(#mask0_80_259)">
<g clip-path="url(#clip0_80_259)">
<path d="M12.5589 35.4084C12.2963 26.9663 16.944 25.5265 12.8214 21.6664C8.69878 17.8063 7.62815 13.9955 9.78995 12.047C12.3743 9.71701 17.5142 9.60624 21.0994 9.86878C23.2612 14.3811 22.3957 19.603 22.3957 19.603C22.3957 19.603 27.4946 34.5552 21.0871 42.4066C20.0232 43.613 18.8244 44.6935 17.5142 45.6267C14.9873 43.5757 12.7517 40.3432 12.5589 35.4084Z" fill="#FCDB54"/>
<path d="M-6.39689 31.5442C-5.02269 24.8044 -0.768831 18.5241 -0.768831 18.5241C-1.25192 16.6586 -1.32468 14.7104 -0.982122 12.814C0.00237846 7.40746 4.53109 4.54009 4.53109 4.54009C4.53109 4.54009 2.76307 2.52597 3.74758 2.13217C4.73208 1.73837 6.61904 3.60482 6.61904 3.60482C6.61904 3.60482 4.75669 1.10254 6.18011 1.00409C7.60354 0.905642 9.09672 2.96489 9.09672 2.96489C9.09672 2.96489 7.86607 0.950764 9.53562 1.24611C11.2052 1.54146 15.7011 4.60573 15.7011 4.60573C18.0764 5.65247 19.9885 7.52953 21.0789 9.88512C17.4937 9.62259 12.3538 9.73334 9.76945 12.0633C7.60764 14.0118 8.6783 17.8063 12.8009 21.6827C16.9235 25.5592 12.2758 26.9826 12.5384 35.4248C12.7312 40.3473 14.9668 43.5715 17.4937 45.6431C6.57802 53.3427 -6.02361 44.7119 -6.02361 44.7119C-6.02361 44.7119 -7.77109 38.2839 -6.39689 31.5442Z" fill="#FFCE01"/>
<path opacity="0.08" d="M23.7288 25.0793C24.619 30.1495 25.0046 37.603 21.0871 42.4065C20.0232 43.613 18.8243 44.6934 17.5142 45.6267C15.2429 43.7979 13.6452 41.265 12.9731 38.4275C17.5569 34.8845 21.2416 30.3116 23.7288 25.0793Z" fill="#E6851B"/>
<path opacity="0.08" d="M12.9731 38.4275C13.6451 41.265 15.2428 43.7979 17.5141 45.6267C7.02505 53.0104 -5.0187 45.3477 -5.94577 44.7365C-4.428 44.6681 -2.90883 44.5423 -1.38833 44.3591C3.84207 43.6978 8.80046 41.6499 12.9731 38.4275Z" fill="#E6851B"/>
<path opacity="0.3" d="M4.31775 20.3496C4.31775 20.3496 12.6614 23.7625 11.0247 30.2356C9.38793 36.7087 4.87154 41.9717 3.09534 41.8281C1.31913 41.6845 1.73755 38.4234 1.73755 38.4234C1.73755 38.4234 -0.506312 43.7561 -3.04551 42.8208C-5.5847 41.8855 -3.7962 37.9434 -3.7962 37.9434C-3.7962 37.9434 -6.19591 44.2401 -9.42836 43.6864C-12.6608 43.1326 -11.6804 36.3026 -7.67265 29.1814C-3.66491 22.0601 -0.112508 18.3108 4.31775 20.3496Z" fill="#E6851B"/>
<path d="M3.20606 19.1764C3.20606 19.1764 11.5497 22.5935 9.913 29.0625C8.27626 35.5315 3.75985 40.8027 1.97954 40.6591C0.199235 40.5155 0.621752 37.2502 0.621752 37.2502C0.621752 37.2502 -1.62208 42.5829 -4.16128 41.6477C-6.70047 40.7124 -4.91197 36.7744 -4.91197 36.7744C-4.91197 36.7744 -7.31168 43.067 -10.5441 42.5173C-13.7766 41.9676 -12.7921 35.1336 -8.78845 28.0164C-4.78481 20.8993 -1.22419 17.1418 3.20606 19.1764Z" fill="#E6851B"/>
<g opacity="0.31">
<path opacity="0.31" d="M6.59024 31.3063C6.17676 32.0198 5.71632 32.7049 5.21194 33.3573C4.71483 34.0115 4.14968 34.611 3.52599 35.1458C3.2201 35.4151 2.87049 35.6301 2.49225 35.7817C2.30885 35.8482 2.10901 35.8547 1.92168 35.8001C1.73435 35.7456 1.56928 35.6328 1.45033 35.4781C1.22044 35.1478 1.08694 34.7601 1.06473 34.3582C1.02066 33.9492 1.02066 33.5366 1.06473 33.1276L1.11396 32.6723L0.929357 33.0825C0.585448 33.855 0.159101 34.588 -0.342282 35.2689C-0.592628 35.6053 -0.881786 35.9109 -1.20374 36.1796C-1.51216 36.4515 -1.89517 36.6244 -2.30309 36.6759C-2.50311 36.6835 -2.70263 36.6512 -2.88999 36.5807C-3.07735 36.5103 -3.24876 36.4032 -3.39424 36.2657C-3.67995 35.9776 -3.85187 35.5959 -3.87828 35.191C-3.91678 34.355 -3.75799 33.5217 -3.41475 32.7584L-3.58705 32.6846C-4.0463 33.8677 -4.68253 34.9742 -5.474 35.9663C-5.8656 36.4634 -6.36307 36.867 -6.93024 37.1477C-7.21351 37.2754 -7.5221 37.3371 -7.83271 37.3282C-8.1413 37.3123 -8.4407 37.2177 -8.70235 37.0533C-9.17932 36.6429 -9.47431 36.0603 -9.52277 35.433C-9.60489 34.8012 -9.60489 34.1614 -9.52277 33.5296C-9.35689 32.2597 -9.0515 31.012 -8.61211 29.809C-9.07825 30.9995 -9.41251 32.2376 -9.60892 33.5009C-9.71011 34.1402 -9.72116 34.7906 -9.64174 35.433C-9.61683 35.7608 -9.52713 36.0804 -9.37785 36.3733C-9.22858 36.6663 -9.02267 36.9267 -8.77208 37.1395C-8.49093 37.3217 -8.16721 37.4278 -7.83271 37.4471C-7.50161 37.4586 -7.17217 37.3955 -6.86873 37.2625C-6.27714 36.971 -5.75848 36.5504 -5.35095 36.0319C-4.53715 35.0262 -3.88275 33.9014 -3.41066 32.6969L-3.58294 32.6272C-3.94843 33.4189 -4.11731 34.2872 -4.0752 35.1582C-4.04276 35.6104 -3.84574 36.0351 -3.5214 36.3519C-3.35659 36.5049 -3.16276 36.6233 -2.95138 36.7001C-2.74 36.7769 -2.51538 36.8105 -2.29078 36.799C-1.84816 36.7445 -1.43294 36.5555 -1.10118 36.2575C-0.768978 35.9795 -0.472702 35.6612 -0.219224 35.3099C0.288354 34.6177 0.716299 33.8705 1.05652 33.0825L0.917064 33.0456C0.871954 33.4614 0.871954 33.8809 0.917064 34.2967C0.942125 34.7208 1.0841 35.1297 1.32727 35.4781C1.46369 35.6503 1.65063 35.7753 1.86182 35.8356C2.07301 35.896 2.29781 35.8886 2.50457 35.8145C2.8932 35.6572 3.25241 35.4353 3.567 35.1582C4.19134 34.612 4.75022 33.9953 5.23245 33.3204C5.72968 32.6802 6.1833 32.0073 6.59024 31.3063Z" fill="#D13A11"/>
</g>
<g opacity="0.31">
<path opacity="0.31" d="M6.35648 26.9498C6.01186 27.5458 5.62673 28.1173 5.20379 28.6604C4.78728 29.2039 4.31426 29.7017 3.79267 30.1454C3.53625 30.3654 3.24518 30.5414 2.93124 30.6663C2.78049 30.7205 2.61636 30.7251 2.46284 30.6793C2.30933 30.6336 2.17447 30.5399 2.078 30.412C1.89224 30.1368 1.78453 29.8164 1.76626 29.4849C1.72934 29.1496 1.72934 28.8112 1.76626 28.4758L1.83188 27.9343L1.60627 28.4307C1.32144 29.0748 0.96651 29.6856 0.547926 30.252C0.342549 30.5337 0.102774 30.7887 -0.165834 31.0109C-0.418043 31.2361 -0.732815 31.3792 -1.0683 31.4211C-1.23265 31.4286 -1.39684 31.403 -1.55114 31.346C-1.70544 31.2889 -1.84673 31.2015 -1.96666 31.0889C-2.20725 30.8537 -2.35321 30.5384 -2.37687 30.2028C-2.40986 29.5077 -2.27771 28.8147 -1.99127 28.1805L-2.17176 28.1066C-2.55504 29.0958 -3.08613 30.0211 -3.74695 30.8509C-4.07291 31.2615 -4.48447 31.5961 -4.95297 31.8313C-5.18613 31.9364 -5.43975 31.9882 -5.69545 31.9831C-5.94994 31.9697 -6.1969 31.8921 -6.41331 31.7575C-6.81215 31.421 -7.06142 30.9401 -7.10657 30.4202C-7.17629 29.8933 -7.17629 29.3596 -7.10657 28.8327C-6.96936 27.7718 -6.71627 26.7291 -6.35179 25.7233C-6.73712 26.7228 -7.01222 27.7613 -7.17221 28.8204C-7.25701 29.3551 -7.26806 29.8989 -7.20504 30.4366C-7.1841 30.7129 -7.10881 30.9823 -6.98351 31.2294C-6.85821 31.4764 -6.68535 31.6963 -6.47485 31.8765C-6.23797 32.0307 -5.96526 32.1211 -5.68315 32.139C-5.40139 32.1499 -5.12084 32.0966 -4.86273 31.9831C-4.36587 31.7451 -3.92964 31.3972 -3.58699 30.9658C-2.90709 30.1245 -2.36059 29.1837 -1.96666 28.1764L-2.14715 28.1025C-2.45357 28.7658 -2.59434 29.4936 -2.55736 30.2233C-2.52937 30.6054 -2.36311 30.9641 -2.08972 31.2324C-1.94994 31.363 -1.78527 31.4641 -1.60555 31.5297C-1.42582 31.5952 -1.23473 31.6239 -1.04369 31.6139C-0.669078 31.5674 -0.317287 31.4087 -0.034564 31.1586C0.241647 30.9229 0.489439 30.6558 0.703807 30.3628C1.12884 29.7838 1.48794 29.1591 1.77445 28.5004L1.61038 28.4553C1.5714 28.8043 1.5714 29.1565 1.61038 29.5055C1.63311 29.8647 1.75682 30.2102 1.96726 30.5023C2.08335 30.6484 2.24244 30.7544 2.42206 30.8052C2.60167 30.856 2.79272 30.849 2.96817 30.7853C3.29339 30.6493 3.59409 30.4608 3.85832 30.2274C4.37724 29.7703 4.84241 29.2556 5.24483 28.6932C5.65391 28.1376 6.02528 27.5552 6.35648 26.9498Z" fill="#D13A11"/>
</g>
<path d="M15.1144 16.9325C14.0949 16.9325 13.2684 16.106 13.2684 15.0865C13.2684 14.0671 14.0949 13.2406 15.1144 13.2406C16.1339 13.2406 16.9603 14.0671 16.9603 15.0865C16.9603 16.106 16.1339 16.9325 15.1144 16.9325Z" fill="#ECBE16"/>
<path d="M16.3205 15.0866C16.3213 15.3254 16.2511 15.5592 16.1189 15.7581C15.9867 15.9571 15.7984 16.1123 15.5779 16.2041C15.3573 16.2959 15.1145 16.3201 14.8802 16.2737C14.6458 16.2273 14.4306 16.1124 14.2617 15.9434C14.0928 15.7745 13.9778 15.5593 13.9314 15.3249C13.885 15.0906 13.9092 14.8478 14.001 14.6273C14.0928 14.4067 14.248 14.2184 14.447 14.0862C14.6459 13.954 14.8797 13.8838 15.1185 13.8847C15.437 13.8857 15.7421 14.0127 15.9672 14.2379C16.1924 14.463 16.3194 14.7681 16.3205 15.0866Z" fill="#222221"/>
<path d="M14.4212 14.66C14.4212 14.7103 14.4361 14.7594 14.4641 14.8013C14.492 14.8431 14.5317 14.8757 14.5782 14.8949C14.6247 14.9142 14.6758 14.9192 14.7252 14.9094C14.7745 14.8996 14.8198 14.8754 14.8554 14.8398C14.8909 14.8042 14.9152 14.7589 14.925 14.7096C14.9348 14.6602 14.9298 14.6091 14.9105 14.5626C14.8913 14.5162 14.8587 14.4764 14.8168 14.4485C14.775 14.4205 14.7258 14.4056 14.6755 14.4056C14.6421 14.4056 14.6091 14.4122 14.5782 14.425C14.5474 14.4378 14.5193 14.4565 14.4957 14.4801C14.4721 14.5037 14.4533 14.5318 14.4406 14.5626C14.4278 14.5935 14.4212 14.6266 14.4212 14.66Z" fill="white"/>
<path d="M22.2644 14.1554C22.2644 14.1554 20.1518 15.4311 21.8542 18.4257C24.3176 18.0705 26.7148 17.3516 28.9672 16.2926L22.2644 14.1554Z" fill="#80544B"/>
<path d="M24.0406 16.5634C26.067 16.5634 28.3683 16.3583 28.516 16.3419C28.5227 16.342 28.5293 16.3406 28.5354 16.3378C28.5415 16.3351 28.5469 16.331 28.5512 16.3259C28.5555 16.3208 28.5586 16.3148 28.5604 16.3083C28.5621 16.3019 28.5623 16.2951 28.5611 16.2885C28.5606 16.2815 28.5587 16.2747 28.5555 16.2684C28.5523 16.2621 28.548 16.2565 28.5426 16.252C28.5373 16.2474 28.5311 16.2439 28.5244 16.2418C28.5177 16.2396 28.5107 16.2387 28.5037 16.2393C28.4504 16.2393 23.1094 16.7316 21.4891 16.2393C21.476 16.2353 21.462 16.2365 21.4497 16.2426C21.4375 16.2487 21.4281 16.2593 21.4235 16.2721C21.4197 16.2857 21.4214 16.3003 21.4284 16.3126C21.4353 16.3249 21.4468 16.3339 21.4604 16.3378C22.3078 16.5192 23.1745 16.5949 24.0406 16.5634Z" fill="#222221"/>
<g opacity="0.29">
<path opacity="0.29" d="M11 4.95852C11.1157 5.06521 11.2202 5.18341 11.3118 5.3113C11.3333 5.34624 11.3417 5.38773 11.3354 5.42828C11.329 5.46883 11.3084 5.50579 11.2773 5.5325C11.2461 5.55922 11.2064 5.57392 11.1654 5.57398C11.1243 5.57403 11.0846 5.55944 11.0534 5.53281C10.9414 5.4197 10.8424 5.29451 10.758 5.15952C10.6514 5.01595 10.8729 4.82725 11 4.95852Z" fill="#F4EED4"/>
</g>
<g opacity="0.29">
<path opacity="0.29" d="M12.3578 5.16772C12.4826 5.31591 12.6199 5.45314 12.768 5.57793C12.9034 5.69689 12.7065 5.9102 12.5794 5.78304C12.4276 5.62622 12.2903 5.45597 12.1692 5.27438C12.0789 5.14721 12.2799 5.02826 12.3702 5.14722L12.3578 5.16772Z" fill="#F4EED4"/>
</g>
<g opacity="0.29">
<path opacity="0.29" d="M14.0602 4.60572C14.2719 4.7271 14.4474 4.90267 14.5688 5.11438C14.6098 5.21693 14.4868 5.29487 14.4007 5.25385C14.2982 5.20153 14.2086 5.1273 14.1381 5.03644C14.0602 4.9544 13.974 4.87235 13.8879 4.79031C13.8018 4.70827 13.933 4.51137 14.0602 4.60572Z" fill="#F4EED4"/>
</g>
<g opacity="0.29">
<path opacity="0.29" d="M12.0092 6.90291L12.0912 7.00956C12.1239 7.05327 12.1463 7.10373 12.1568 7.15724C12.1648 7.18492 12.1645 7.21432 12.156 7.24183C12.1474 7.26934 12.1311 7.29376 12.1088 7.31207C12.0866 7.33038 12.0595 7.34178 12.0308 7.34488C12.0022 7.34799 11.9733 7.34265 11.9476 7.32952C11.9273 7.32246 11.908 7.31281 11.8902 7.30081C11.8552 7.27607 11.8247 7.24555 11.8 7.21057L11.7138 7.0916C11.701 7.07233 11.6923 7.05069 11.688 7.02795C11.6838 7.00522 11.6841 6.98186 11.6891 6.95927C11.6941 6.93669 11.7036 6.91534 11.717 6.89649C11.7304 6.87765 11.7474 6.86169 11.7671 6.84958C11.8067 6.8259 11.8538 6.81823 11.8988 6.82814C11.9438 6.83806 11.9833 6.86481 12.0092 6.90291Z" fill="#F4EED4"/>
</g>
<g opacity="0.29">
<path opacity="0.29" d="M15.4918 6.37374C15.6149 6.52962 15.7584 6.66499 15.902 6.82087C16.0456 6.97675 15.8077 7.09571 15.6928 6.99726C15.5444 6.85069 15.4199 6.68184 15.3236 6.4968C15.3073 6.47178 15.3016 6.4413 15.3078 6.41207C15.3139 6.38283 15.3314 6.35724 15.3564 6.34092C15.3814 6.3246 15.4119 6.31889 15.4412 6.32505C15.4704 6.3312 15.496 6.34872 15.5123 6.37374H15.4918Z" fill="#F4EED4"/>
</g>
<g opacity="0.29">
<path opacity="0.29" d="M14.0602 6.96445C14.0971 7.07521 14.1955 7.11623 14.2817 7.19007C14.3021 7.20884 14.3164 7.23326 14.3229 7.26022C14.3293 7.28717 14.3276 7.31544 14.3179 7.34141C14.3082 7.36738 14.291 7.38988 14.2685 7.40603C14.246 7.42218 14.2191 7.43125 14.1914 7.43209C14.0917 7.41946 13.9985 7.37585 13.9249 7.3074C13.8513 7.23895 13.8011 7.14913 13.7812 7.0506C13.776 7.01569 13.7835 6.98008 13.8023 6.95022C13.8211 6.92036 13.85 6.89821 13.8837 6.8878C13.9175 6.87739 13.9538 6.87939 13.9861 6.89345C14.0185 6.90751 14.0448 6.9327 14.0602 6.96445Z" fill="#F4EED4"/>
</g>
</g>
</g>
<defs>
<clipPath id="clip0_80_259">
<rect width="45" height="57.9667" fill="white" transform="matrix(-1 0 0 1 29 1)"/>
</clipPath>
</defs>
</svg>
