<svg width="25" height="25" viewBox="0 0 25 25" fill="none" xmlns="http://www.w3.org/2000/svg">
<g filter="url(#filter0_di_66_345)">
<circle cx="13.5" cy="13.5" r="8.5" fill="#FEBA5D"/>
</g>
<path d="M14.5397 8C14.9768 8 15.3311 8.3543 15.3311 8.79135V8.79135C15.3311 9.22841 14.9768 9.58271 14.5397 9.58271H11.9019C11.4648 9.58271 11.1105 9.22841 11.1105 8.79135V8.79135C11.1105 8.3543 11.4648 8 11.9019 8H14.5397Z" fill="#FFFCF8"/>
<path d="M15.6813 16.679C15.4007 16.3953 14.9432 16.4023 14.594 16.5952C14.1552 16.8376 13.6503 16.9657 13.1865 16.9657C11.2343 16.9657 10.4783 15.6003 10.467 14.2914C10.4557 12.9711 11.2795 11.5493 13.1865 11.5493C13.6582 11.5493 14.1352 11.6606 14.5558 11.8941C14.883 12.0758 15.3078 12.0871 15.5769 11.8271V11.8271C15.8563 11.5573 15.8615 11.1044 15.5448 10.8794C14.8417 10.38 14.0316 10.1275 13.1865 10.1275C10.3316 10.1275 8.98879 12.2264 9.00007 14.2914C9.01135 16.3451 10.2526 18.3649 13.1865 18.3649C14.0812 18.3649 14.9202 18.1355 15.6327 17.6492C15.9613 17.4249 15.9611 16.9619 15.6813 16.679V16.679Z" fill="#FFFCF8"/>
<defs>
<filter id="filter0_di_66_345" x="0" y="0" width="25" height="25" filterUnits="userSpaceOnUse" color-interpolation-filters="sRGB">
<feFlood flood-opacity="0" result="BackgroundImageFix"/>
<feColorMatrix in="SourceAlpha" type="matrix" values="0 0 0 0 0 0 0 0 0 0 0 0 0 0 0 0 0 0 127 0" result="hardAlpha"/>
<feOffset dx="-1" dy="-1"/>
<feGaussianBlur stdDeviation="2"/>
<feComposite in2="hardAlpha" operator="out"/>
<feColorMatrix type="matrix" values="0 0 0 0 1 0 0 0 0 1 0 0 0 0 1 0 0 0 1 0"/>
<feBlend mode="normal" in2="BackgroundImageFix" result="effect1_dropShadow_66_345"/>
<feBlend mode="normal" in="SourceGraphic" in2="effect1_dropShadow_66_345" result="shape"/>
<feColorMatrix in="SourceAlpha" type="matrix" values="0 0 0 0 0 0 0 0 0 0 0 0 0 0 0 0 0 0 127 0" result="hardAlpha"/>
<feOffset dx="0.5" dy="0.5"/>
<feGaussianBlur stdDeviation="0.25"/>
<feComposite in2="hardAlpha" operator="arithmetic" k2="-1" k3="1"/>
<feColorMatrix type="matrix" values="0 0 0 0 0 0 0 0 0 0 0 0 0 0 0 0 0 0 0.25 0"/>
<feBlend mode="normal" in2="shape" result="effect2_innerShadow_66_345"/>
</filter>
</defs>
</svg>
