<svg width="26" height="24" viewBox="0 0 26 24" fill="none" xmlns="http://www.w3.org/2000/svg">
<g filter="url(#filter0_di_66_343)">
<path d="M22.5046 11.0141C22.4233 10.7728 22.2723 10.5579 22.0687 10.3941C21.8651 10.2303 21.6171 10.1241 21.353 10.0876L17.0106 9.48665L15.068 5.75558C14.9494 5.52867 14.7664 5.33772 14.5396 5.20422C14.3129 5.07073 14.0514 5 13.7846 5C13.5178 5 13.2563 5.07073 13.0296 5.20422C12.8029 5.33772 12.6199 5.52867 12.5012 5.75558L10.5586 9.495L6.21622 10.096C5.95373 10.1341 5.70755 10.2407 5.50518 10.404C5.3028 10.5672 5.15218 10.7807 5.07012 11.0205C4.98807 11.2603 4.97781 11.517 5.04049 11.762C5.10317 12.0071 5.23633 12.2307 5.42509 12.4081L8.56321 15.3128L7.82483 19.4195C7.78185 19.6686 7.8127 19.9242 7.91395 20.1576C8.01519 20.391 8.18282 20.5931 8.3981 20.7412C8.61338 20.8893 8.86781 20.9776 9.13293 20.9963C9.39806 21.0149 9.66342 20.9632 9.89933 20.8468L13.7846 18.9103L17.6699 20.8468C17.9058 20.9632 18.1712 21.0149 18.4363 20.9963C18.7014 20.9776 18.9559 20.8893 19.1712 20.7412C19.3864 20.5931 19.5541 20.391 19.6553 20.1576C19.7565 19.9242 19.7874 19.6686 19.7444 19.4195L19.006 15.3128L22.1529 12.3997C22.3416 12.2228 22.4745 11.9993 22.5366 11.7545C22.5987 11.5097 22.5876 11.2533 22.5046 11.0141V11.0141Z" fill="#FFB754"/>
</g>
<defs>
<filter id="filter0_di_66_343" x="0" y="0" width="25.5762" height="24" filterUnits="userSpaceOnUse" color-interpolation-filters="sRGB">
<feFlood flood-opacity="0" result="BackgroundImageFix"/>
<feColorMatrix in="SourceAlpha" type="matrix" values="0 0 0 0 0 0 0 0 0 0 0 0 0 0 0 0 0 0 127 0" result="hardAlpha"/>
<feOffset dx="-1" dy="-1"/>
<feGaussianBlur stdDeviation="2"/>
<feComposite in2="hardAlpha" operator="out"/>
<feColorMatrix type="matrix" values="0 0 0 0 1 0 0 0 0 1 0 0 0 0 1 0 0 0 1 0"/>
<feBlend mode="normal" in2="BackgroundImageFix" result="effect1_dropShadow_66_343"/>
<feBlend mode="normal" in="SourceGraphic" in2="effect1_dropShadow_66_343" result="shape"/>
<feColorMatrix in="SourceAlpha" type="matrix" values="0 0 0 0 0 0 0 0 0 0 0 0 0 0 0 0 0 0 127 0" result="hardAlpha"/>
<feOffset dx="0.5" dy="0.5"/>
<feGaussianBlur stdDeviation="0.25"/>
<feComposite in2="hardAlpha" operator="arithmetic" k2="-1" k3="1"/>
<feColorMatrix type="matrix" values="0 0 0 0 0 0 0 0 0 0 0 0 0 0 0 0 0 0 0.25 0"/>
<feBlend mode="normal" in2="shape" result="effect2_innerShadow_66_343"/>
</filter>
</defs>
</svg>
